PathFileType	4	(X/Y/Z)	C:\Users\italobelli\Desktop\GitHub\PTbot_officialCBL\Personal_Results\SHRUG21_noisy1.trc
DataRate	CameraRate	NumFrames	NumMarkers	Units	OrigDataRate	OrigDataStartFrame	OrigNumFrames
112.250000	112.250000	51	9	m	112.250000	338	450
Frame#	Time		gu		centelbow		EpL		centpxt8		centijc7		ij		ts		aa		ai
			X1	Y1	Z1	X2	Y2	Z2	X3	Y3	Z3	X4	Y4	Z4	X5	Y5	Z5	X6	Y6	Z6	X7	Y7	Z7	X8	Y8	Z8	X9	Y9	Z9

338	3.0022	-0.089292	-0.012264	0.1669	-0.1317	-0.2568	0.20295	-0.1169	-0.25373	0.23143	-0.046816	-0.15316	-0.008669	-0.046816	0.031938	-0.008669	0	0	0	-0.13713	0.034396	0.0496	-0.1148	0.024764	0.16636	-0.16388	-0.075918	0.050922
339	3.0111	-0.089296	-0.012306	0.16689	-0.13179	-0.25677	0.20265	-0.11697	-0.2537	0.23113	-0.046816	-0.15316	-0.008669	-0.046816	0.031938	-0.008669	0	0	0	-0.13715	0.034374	0.049596	-0.11479	0.024743	0.16636	-0.16394	-0.075934	0.050865
340	3.02	-0.089308	-0.012347	0.16688	-0.13188	-0.25673	0.20234	-0.11704	-0.25366	0.23082	-0.046816	-0.15316	-0.008669	-0.046816	0.031938	-0.008669	0	0	0	-0.13716	0.034353	0.049589	-0.1148	0.024724	0.16635	-0.164	-0.075949	0.050808
341	3.029	-0.089327	-0.012387	0.16687	-0.13198	-0.25668	0.20204	-0.11713	-0.25361	0.23052	-0.046816	-0.15316	-0.008669	-0.046816	0.031938	-0.008669	0	0	0	-0.13718	0.034333	0.049579	-0.11481	0.024706	0.16634	-0.16406	-0.075964	0.050753
342	3.0379	-0.089354	-0.012426	0.16685	-0.13208	-0.25662	0.20173	-0.11722	-0.25355	0.23022	-0.046816	-0.15316	-0.008669	-0.046816	0.031938	-0.008669	0	0	0	-0.1372	0.034314	0.049566	-0.11484	0.02469	0.16633	-0.16412	-0.075977	0.050698
343	3.0468	-0.089388	-0.012465	0.16683	-0.13219	-0.25656	0.20143	-0.11732	-0.25349	0.22991	-0.046816	-0.15316	-0.008669	-0.046816	0.031938	-0.008669	0	0	0	-0.13722	0.034295	0.04955	-0.11487	0.024674	0.16632	-0.16418	-0.075991	0.050644
344	3.0557	-0.089428	-0.012502	0.1668	-0.1323	-0.25649	0.20112	-0.11743	-0.25342	0.2296	-0.046816	-0.15316	-0.008669	-0.046816	0.031938	-0.008669	0	0	0	-0.13724	0.034277	0.049531	-0.1149	0.024661	0.16631	-0.16424	-0.076003	0.050591
345	3.0646	-0.089475	-0.012539	0.16677	-0.13242	-0.25641	0.2008	-0.11755	-0.25334	0.22929	-0.046816	-0.15316	-0.008669	-0.046816	0.031938	-0.008669	0	0	0	-0.13727	0.03426	0.049511	-0.11495	0.024648	0.16629	-0.1643	-0.076015	0.050538
346	3.0735	-0.089527	-0.012575	0.16674	-0.13254	-0.25632	0.20049	-0.11767	-0.25326	0.22898	-0.046816	-0.15316	-0.008669	-0.046816	0.031938	-0.008669	0	0	0	-0.13729	0.034243	0.049487	-0.115	0.024636	0.16627	-0.16436	-0.076026	0.050486
347	3.0824	-0.089586	-0.012609	0.1667	-0.13266	-0.25623	0.20018	-0.11779	-0.25317	0.22867	-0.046816	-0.15316	-0.008669	-0.046816	0.031938	-0.008669	0	0	0	-0.13732	0.034227	0.049461	-0.11506	0.024626	0.16626	-0.16443	-0.076037	0.050435
348	3.0913	-0.08965	-0.012643	0.16666	-0.13279	-0.25613	0.19986	-0.11792	-0.25307	0.22836	-0.046816	-0.15316	-0.008669	-0.046816	0.031938	-0.008669	0	0	0	-0.13734	0.034211	0.049433	-0.11512	0.024617	0.16624	-0.16449	-0.076047	0.050385
349	3.1002	-0.089719	-0.012676	0.16662	-0.13293	-0.25603	0.19954	-0.11806	-0.25297	0.22804	-0.046816	-0.15316	-0.008669	-0.046816	0.031938	-0.008669	0	0	0	-0.13737	0.034196	0.049403	-0.11519	0.02461	0.16622	-0.16455	-0.076056	0.050336
350	3.1091	-0.089794	-0.012708	0.16657	-0.13306	-0.25591	0.19922	-0.1182	-0.25287	0.22773	-0.046816	-0.15316	-0.008669	-0.046816	0.031938	-0.008669	0	0	0	-0.1374	0.034182	0.049371	-0.11526	0.024603	0.16619	-0.1646	-0.076064	0.050288
351	3.118	-0.089873	-0.012739	0.16652	-0.13321	-0.2558	0.1989	-0.11835	-0.25276	0.22741	-0.046816	-0.15316	-0.008669	-0.046816	0.031938	-0.008669	0	0	0	-0.13743	0.034169	0.049337	-0.11534	0.024598	0.16617	-0.16466	-0.076072	0.05024
352	3.1269	-0.089956	-0.012769	0.16647	-0.13335	-0.25568	0.19858	-0.1185	-0.25264	0.2271	-0.046816	-0.15316	-0.008669	-0.046816	0.031938	-0.008669	0	0	0	-0.13746	0.034156	0.049302	-0.11543	0.024594	0.16614	-0.16472	-0.076079	0.050193
353	3.1359	-0.090044	-0.012798	0.16642	-0.1335	-0.25555	0.19826	-0.11866	-0.25252	0.22678	-0.046816	-0.15316	-0.008669	-0.046816	0.031938	-0.008669	0	0	0	-0.1375	0.034144	0.049264	-0.11552	0.024591	0.16612	-0.16478	-0.076086	0.050148
354	3.1448	-0.090135	-0.012826	0.16636	-0.13364	-0.25542	0.19793	-0.11882	-0.2524	0.22646	-0.046816	-0.15316	-0.008669	-0.046816	0.031938	-0.008669	0	0	0	-0.13753	0.034132	0.049225	-0.11561	0.024589	0.16609	-0.16484	-0.076092	0.050103
355	3.1537	-0.09023	-0.012852	0.16631	-0.1338	-0.25529	0.19761	-0.11898	-0.25227	0.22614	-0.046816	-0.15316	-0.008669	-0.046816	0.031938	-0.008669	0	0	0	-0.13756	0.034122	0.049185	-0.11571	0.024588	0.16606	-0.1649	-0.076097	0.050059
356	3.1626	-0.090329	-0.012878	0.16625	-0.13395	-0.25515	0.19729	-0.11915	-0.25213	0.22583	-0.046816	-0.15316	-0.008669	-0.046816	0.031938	-0.008669	0	0	0	-0.1376	0.034112	0.049143	-0.11581	0.024589	0.16603	-0.16495	-0.076102	0.050016
357	3.1715	-0.09043	-0.012903	0.16619	-0.13411	-0.255	0.19696	-0.11932	-0.252	0.22551	-0.046816	-0.15316	-0.008669	-0.046816	0.031938	-0.008669	0	0	0	-0.13763	0.034102	0.0491	-0.11591	0.02459	0.166	-0.16501	-0.076106	0.049974
358	3.1804	-0.090535	-0.012927	0.16612	-0.13426	-0.25486	0.19664	-0.11949	-0.25186	0.22519	-0.046816	-0.15316	-0.008669	-0.046816	0.031938	-0.008669	0	0	0	-0.13767	0.034094	0.049056	-0.11602	0.024593	0.16597	-0.16506	-0.076109	0.049933
359	3.1893	-0.090641	-0.012949	0.16606	-0.13442	-0.25471	0.19631	-0.11966	-0.25172	0.22487	-0.046816	-0.15316	-0.008669	-0.046816	0.031938	-0.008669	0	0	0	-0.1377	0.034086	0.049011	-0.11613	0.024596	0.16594	-0.16512	-0.076112	0.049893
360	3.1982	-0.09075	-0.01297	0.16599	-0.13459	-0.25455	0.19599	-0.11984	-0.25157	0.22455	-0.046816	-0.15316	-0.008669	-0.046816	0.031938	-0.008669	0	0	0	-0.13774	0.034078	0.048966	-0.11624	0.024601	0.16591	-0.16517	-0.076114	0.049854
361	3.2071	-0.090861	-0.012991	0.16592	-0.13475	-0.2544	0.19566	-0.12002	-0.25142	0.22424	-0.046816	-0.15316	-0.008669	-0.046816	0.031938	-0.008669	0	0	0	-0.13778	0.034072	0.048919	-0.11636	0.024607	0.16588	-0.16523	-0.076116	0.049815
362	3.216	-0.090974	-0.01301	0.16586	-0.13491	-0.25424	0.19534	-0.1202	-0.25127	0.22392	-0.046816	-0.15316	-0.008669	-0.046816	0.031938	-0.008669	0	0	0	-0.13781	0.034066	0.048872	-0.11647	0.024614	0.16584	-0.16528	-0.076117	0.049778
363	3.2249	-0.091087	-0.013028	0.16579	-0.13508	-0.25408	0.19502	-0.12038	-0.25112	0.2236	-0.046816	-0.15316	-0.008669	-0.046816	0.031938	-0.008669	0	0	0	-0.13785	0.034061	0.048824	-0.11659	0.024622	0.16581	-0.16533	-0.076117	0.049742
364	3.2339	-0.091202	-0.013044	0.16572	-0.13524	-0.25392	0.19469	-0.12056	-0.25096	0.22329	-0.046816	-0.15316	-0.008669	-0.046816	0.031938	-0.008669	0	0	0	-0.13789	0.034056	0.048776	-0.11671	0.024631	0.16577	-0.16539	-0.076117	0.049708
365	3.2428	-0.091318	-0.01306	0.16565	-0.13541	-0.25375	0.19437	-0.12075	-0.25081	0.22297	-0.046816	-0.15316	-0.008669	-0.046816	0.031938	-0.008669	0	0	0	-0.13793	0.034052	0.048727	-0.11682	0.024641	0.16574	-0.16544	-0.076116	0.049674
366	3.2517	-0.091435	-0.013074	0.16557	-0.13557	-0.25359	0.19405	-0.12093	-0.25065	0.22266	-0.046816	-0.15316	-0.008669	-0.046816	0.031938	-0.008669	0	0	0	-0.13796	0.034049	0.048679	-0.11694	0.024652	0.16571	-0.16549	-0.076114	0.049641
367	3.2606	-0.091551	-0.013088	0.1655	-0.13574	-0.25342	0.19373	-0.12112	-0.25049	0.22234	-0.046816	-0.15316	-0.008669	-0.046816	0.031938	-0.008669	0	0	0	-0.138	0.034047	0.04863	-0.11706	0.024664	0.16567	-0.16554	-0.076112	0.049609
368	3.2695	-0.091668	-0.0131	0.16543	-0.1359	-0.25325	0.19341	-0.1213	-0.25033	0.22203	-0.046816	-0.15316	-0.008669	-0.046816	0.031938	-0.008669	0	0	0	-0.13804	0.034045	0.048581	-0.11718	0.024676	0.16564	-0.16558	-0.076109	0.049579
369	3.2784	-0.091784	-0.01311	0.16536	-0.13607	-0.25308	0.19309	-0.12148	-0.25017	0.22172	-0.046816	-0.15316	-0.008669	-0.046816	0.031938	-0.008669	0	0	0	-0.13808	0.034044	0.048532	-0.1173	0.02469	0.1656	-0.16563	-0.076106	0.049549
370	3.2873	-0.0919	-0.01312	0.16529	-0.13623	-0.25291	0.19277	-0.12167	-0.25001	0.22141	-0.046816	-0.15316	-0.008669	-0.046816	0.031938	-0.008669	0	0	0	-0.13812	0.034044	0.048484	-0.11742	0.024705	0.16557	-0.16568	-0.076102	0.049521
371	3.2962	-0.092015	-0.013128	0.16522	-0.1364	-0.25275	0.19246	-0.12185	-0.24984	0.2211	-0.046816	-0.15316	-0.008669	-0.046816	0.031938	-0.008669	0	0	0	-0.13815	0.034045	0.048436	-0.11753	0.024721	0.16554	-0.16572	-0.076097	0.049494
372	3.3051	-0.092128	-0.013135	0.16514	-0.13656	-0.25258	0.19214	-0.12203	-0.24968	0.22079	-0.046816	-0.15316	-0.008669	-0.046816	0.031938	-0.008669	0	0	0	-0.13819	0.034046	0.048389	-0.11764	0.024737	0.1655	-0.16577	-0.076092	0.049468
373	3.314	-0.092241	-0.013141	0.16507	-0.13672	-0.25241	0.19183	-0.12221	-0.24952	0.22049	-0.046816	-0.15316	-0.008669	-0.046816	0.031938	-0.008669	0	0	0	-0.13823	0.034048	0.048342	-0.11776	0.024755	0.16547	-0.16581	-0.076087	0.049444
374	3.3229	-0.092351	-0.013145	0.165	-0.13688	-0.25224	0.19152	-0.12239	-0.24936	0.22018	-0.046816	-0.15316	-0.008669	-0.046816	0.031938	-0.008669	0	0	0	-0.13826	0.034051	0.048296	-0.11787	0.024773	0.16544	-0.16585	-0.07608	0.04942
375	3.3318	-0.09246	-0.013148	0.16493	-0.13704	-0.25208	0.19121	-0.12256	-0.2492	0.21988	-0.046816	-0.15316	-0.008669	-0.046816	0.031938	-0.008669	0	0	0	-0.1383	0.034054	0.04825	-0.11797	0.024793	0.1654	-0.16589	-0.076073	0.049398
376	3.3408	-0.092567	-0.01315	0.16487	-0.1372	-0.25191	0.1909	-0.12274	-0.24904	0.21958	-0.046816	-0.15316	-0.008669	-0.046816	0.031938	-0.008669	0	0	0	-0.13833	0.034058	0.048206	-0.11808	0.024813	0.16537	-0.16593	-0.076066	0.049377
377	3.3497	-0.09267	-0.01315	0.1648	-0.13735	-0.25175	0.1906	-0.12291	-0.24888	0.21928	-0.046816	-0.15316	-0.008669	-0.046816	0.031938	-0.008669	0	0	0	-0.13837	0.034063	0.048162	-0.11818	0.024834	0.16534	-0.16597	-0.076057	0.049357
378	3.3586	-0.092772	-0.013149	0.16473	-0.13751	-0.25159	0.19029	-0.12307	-0.24873	0.21898	-0.046816	-0.15316	-0.008669	-0.046816	0.031938	-0.008669	0	0	0	-0.1384	0.034069	0.04812	-0.11828	0.024856	0.16531	-0.16601	-0.076049	0.049339
379	3.3675	-0.09287	-0.013147	0.16467	-0.13766	-0.25143	0.18999	-0.12324	-0.24857	0.21868	-0.046816	-0.15316	-0.008669	-0.046816	0.031938	-0.008669	0	0	0	-0.13844	0.034075	0.048079	-0.11837	0.024878	0.16528	-0.16605	-0.076039	0.049322
380	3.3764	-0.092965	-0.013143	0.16461	-0.13781	-0.25127	0.18969	-0.1234	-0.24842	0.21839	-0.046816	-0.15316	-0.008669	-0.046816	0.031938	-0.008669	0	0	0	-0.13847	0.034082	0.04804	-0.11846	0.024902	0.16525	-0.16608	-0.07603	0.049306
381	3.3853	-0.093056	-0.013138	0.16455	-0.13795	-0.25111	0.1894	-0.12355	-0.24827	0.2181	-0.046816	-0.15316	-0.008669	-0.046816	0.031938	-0.008669	0	0	0	-0.1385	0.03409	0.048002	-0.11855	0.024926	0.16522	-0.16612	-0.076019	0.049291
382	3.3942	-0.093143	-0.013131	0.16449	-0.13809	-0.25096	0.18911	-0.1237	-0.24812	0.21781	-0.046816	-0.15316	-0.008669	-0.046816	0.031938	-0.008669	0	0	0	-0.13853	0.034098	0.047965	-0.11863	0.024951	0.1652	-0.16615	-0.076008	0.049278
383	3.4031	-0.093226	-0.013123	0.16443	-0.13823	-0.25081	0.18882	-0.12385	-0.24798	0.21752	-0.046816	-0.15316	-0.008669	-0.046816	0.031938	-0.008669	0	0	0	-0.13856	0.034108	0.04793	-0.1187	0.024977	0.16517	-0.16618	-0.075996	0.049266
384	3.412	-0.093304	-0.013114	0.16437	-0.13837	-0.25067	0.18853	-0.124	-0.24784	0.21724	-0.046816	-0.15316	-0.008669	-0.046816	0.031938	-0.008669	0	0	0	-0.13859	0.034118	0.047897	-0.11877	0.025003	0.16515	-0.16621	-0.075984	0.049256
385	3.4209	-0.093378	-0.013103	0.16432	-0.1385	-0.25053	0.18825	-0.12413	-0.2477	0.21696	-0.046816	-0.15316	-0.008669	-0.046816	0.031938	-0.008669	0	0	0	-0.13862	0.034129	0.047866	-0.11884	0.025031	0.16512	-0.16624	-0.075972	0.049247
386	3.4298	-0.093447	-0.01309	0.16427	-0.13862	-0.25039	0.18797	-0.12427	-0.24756	0.21668	-0.046816	-0.15316	-0.008669	-0.046816	0.031938	-0.008669	0	0	0	-0.13865	0.03414	0.047838	-0.11889	0.025059	0.1651	-0.16627	-0.075958	0.049239
387	3.4388	-0.093511	-0.013077	0.16422	-0.13875	-0.25026	0.18769	-0.12439	-0.24743	0.21641	-0.046816	-0.15316	-0.008669	-0.046816	0.031938	-0.008669	0	0	0	-0.13867	0.034153	0.047811	-0.11895	0.025087	0.16508	-0.16629	-0.075944	0.049233
388	3.4477	-0.093569	-0.013061	0.16418	-0.13887	-0.25013	0.18742	-0.12451	-0.2473	0.21613	-0.046816	-0.15316	-0.008669	-0.046816	0.031938	-0.008669	0	0	0	-0.1387	0.034166	0.047786	-0.11899	0.025117	0.16506	-0.16632	-0.07593	0.049228
